<?xml version="1.0" encoding="utf-8"?>
<!-- Generator: Adobe Illustrator 24.2.3, SVG Export Plug-In . SVG Version: 6.00 Build 0)  -->
<svg version="1.1" id="Layer_1" xmlns="http://www.w3.org/2000/svg" xmlns:xlink="http://www.w3.org/1999/xlink" x="0px" y="0px"
	 viewBox="0 0 4494.6 4698.2" style="enable-background:new 0 0 4494.6 4698.2;" xml:space="preserve">
<style type="text/css">
	.st0{fill:#FFFFFF;}
	.st1{fill:#CCECFC;}
	.st2{fill:none;}
	.st3{fill:#DB4744;}
	.st4{fill:#3C454F;}
	.st5{fill:#00A4A1;}
	.st6{fill:#525F6C;}
	.st7{fill:#2F363B;}
	.st8{fill:#434B54;}
	.st9{fill:#E9F6F5;}
	.st10{fill:#FDC76C;}
	.st11{fill:#F39226;}
	.st12{fill:#E1AF65;}
	.st13{fill:#E9E6E3;}
	.st14{fill:#FFF9F6;}
	.st15{fill:#E05B5A;}
	.st16{fill:#F7F8F9;}
	.st17{fill:#404E51;}
	.st18{fill:#C54240;}
	.st19{fill:#30393A;}
	.st20{fill:#E32228;}
	.st21{fill:#069BA6;}
	.st22{fill:#F9F9FA;}
	.st23{fill:#010101;}
	.st24{fill:#F26428;}
	.st25{fill:#E6E6E5;}
	.st26{fill:#0B4969;}
	.st27{fill:#4CC4D1;}
	.st28{fill:#D7AF95;}
	.st29{fill:#F3C8A6;}
	.st30{fill:#D1D4DC;}
	.st31{fill:#435C7A;}
	.st32{fill:#BECAC6;}
	.st33{fill:#E3B99A;}
	.st34{fill:#3C2618;}
	.st35{fill:#1D626D;}
	.st36{fill:#2D4A55;}
	.st37{fill:#343337;}
	.st38{fill:#B4B4B4;}
	.st39{fill:#292728;}
	.st40{fill:#305056;}
</style>
<g id="Layer_2_1_">
	<g id="Layer_1-2">
		<path class="st0" d="M283.1,2403.1c0,0,0.2-12.6,0.5-37.1c0.1-6.1,0-13,0.4-20.6s0.6-15.9,1-24.9s0.6-18.8,1.3-29.2
			s1.4-21.6,2.1-33.4c3.5-47.2,8.9-105.5,19.6-173.4c12.2-77.8,28.9-154.8,49.9-230.7c1.5-5.3,2.9-10.7,4.4-16.1l4.8-16.2l9.9-33
			c7.3-22.1,14.3-44.9,22.7-67.9c7.9-23.1,17-46.4,26.1-70.3c9.7-23.7,19.3-47.9,30.2-72.3c46.2-105.4,101.3-206.7,164.6-302.8
			c152.1-231.1,348.9-429.4,578.9-583.2c64.3-42.9,131-82.2,199.7-117.7c71.3-36.8,144.8-69.3,220-97.5
			c77.7-29.2,157.2-53.6,238-72.9c20.4-5.2,41.2-9.4,61.9-14c10.3-2.4,20.8-4.1,31.3-6.2s20.9-4.1,31.5-5.9l31.7-5.2l15.9-2.6
			l16-2.2c10.7-1.5,21.4-3,32.1-4.5c10.7-1.4,21.5-2.5,32.3-3.7c21.5-2.7,43.2-4.3,65-6.3c10.9-1.1,21.8-1.6,32.7-2.3
			s21.9-1.5,32.9-2l33.1-1.2l16.6-0.6l16.5-0.2c11-0.1,22-0.3,33.1-0.4c11.3,0,22.3,0.3,33.4,0.4c22.3,0,44.6,1.2,66.9,2
			c11.2,0.3,22.4,1.3,33.6,1.9s22.4,1.3,33.6,2.3c22.4,2.1,45,3.8,67.4,6.6c11.2,1.3,22.5,2.5,33.8,4l33.8,4.8
			c11.3,1.5,22.5,3.4,33.8,5.3s22.6,3.7,33.8,5.7c22.4,4.4,45.1,8.4,67.5,13.5c45.1,9.4,89.8,21.2,134.5,33.8
			c22.3,6.6,44.6,13.1,66.8,20.6c22.3,7,44.3,15,66.4,22.8c11,4,22,8.3,32.9,12.4l16.5,6.3c5.5,2.1,10.9,4.4,16.4,6.6l32.7,13.4
			l32.5,14.2c546.2,243.2,959.6,711.9,1132.8,1284.2c58.1,192.3,87.4,394,87.2,595.6s-30,403.1-88.4,595.2
			c-174.3,570.9-588,1038-1133.7,1280.1c-10.8,4.7-21.6,9.4-32.4,14.1c-10.9,4.4-21.8,8.9-32.7,13.3c-5.4,2.2-10.9,4.5-16.3,6.6
			l-16.4,6.2c-11,4.1-21.9,8.4-32.9,12.3c-22.1,7.7-44,15.7-66.3,22.6c-22.1,7.4-44.4,13.8-66.6,20.4
			c-44.6,12.5-89.3,24.1-134.2,33.5c-22.4,5.1-44.9,9-67.3,13.4c-11.3,2-22.5,3.8-33.7,5.6s-22.4,3.8-33.7,5.2l-33.7,4.7
			c-11.2,1.5-22.5,2.6-33.7,3.9c-22.4,2.8-44.9,4.4-67.2,6.4c-11.2,1-22.4,1.5-33.6,2.3c-11.2,0.6-22.3,1.6-33.5,1.9
			c-22.3,0.8-44.6,1.9-66.7,1.9c-11.1,0.1-22.1,0.3-33.2,0.3l-33.1-0.5l-16.5-0.2l-16.5-0.6l-32.9-1.3c-10.9-0.5-21.9-1.4-32.8-2
			s-21.8-1.3-32.6-2.4c-21.7-2-43.3-3.7-64.8-6.4c-10.7-1.3-21.5-2.4-32.1-3.8l-31.9-4.5l-15.9-2.2l-15.8-2.6
			c-10.5-1.8-21.1-3.5-31.6-5.3c-10.5-1.9-20.9-4-31.3-6s-20.9-3.9-31.2-6.2c-20.7-4.6-41.3-8.8-61.7-14
			c-80.4-19.4-159.5-43.9-236.9-73.1c-76.1-28.8-149.3-61.3-218.9-97.5c-68.3-35.5-134.6-74.8-198.6-117.6
			c-228.6-153.5-424.1-351.2-575-581.6c-62.8-95.7-117.3-196.6-163.1-301.5c-10.8-24.2-20.3-48.4-29.9-71.9c-9-23.8-18-46.9-25.8-70
			c-8.3-22.8-15.2-45.5-22.5-67.5c-3.3-11.1-6.6-22.1-9.8-32.9c-1.6-5.4-3.2-10.8-4.8-16.1s-2.9-10.7-4.4-16
			c-20.7-75.5-37.1-152.1-49.1-229.4c-10.4-67.5-15.7-125.4-19.1-172.4c-0.7-11.7-1.4-22.8-2.1-33.2c-0.7-10.4-0.8-20.1-1.2-29
			s-0.6-17.3-0.9-24.8s-0.2-14.4-0.4-20.4c-0.3-24.3-0.4-36.9-0.4-36.9L283.1,2403.1z M296.3,2403.1c0,0,0.2,12.6,0.5,36.9
			c0.1,6.1,0.1,12.9,0.4,20.4s0.6,15.8,1,24.8s0.6,18.6,1.3,29s1.4,21.4,2.1,33.2c3.5,47,8.9,104.8,19.4,172.3
			c12.1,77.3,28.7,153.8,49.6,229.2c1.5,5.3,2.9,10.7,4.4,16s3.2,10.7,4.8,16.1c3.3,10.8,6.5,21.7,9.9,32.8
			c7.3,22,14.2,44.6,22.6,67.4c7.9,23,16.9,46.1,25.9,69.9c9.6,23.5,19.2,47.6,30,71.8c45.9,104.7,100.6,205.4,163.5,300.9
			c151.1,229.7,346.7,426.7,575.3,579.5c63.9,42.6,130.2,81.7,198.4,117c69.5,36.1,142.7,68.3,218.6,96.9
			c77.2,29,156.2,53.2,236.4,72.5c20.3,5.2,40.9,9.4,61.5,13.9c10.3,2.4,20.7,4.1,31.1,6.2s20.8,4,31.3,5.9l31.5,5.2l15.8,2.6
			l15.9,2.2c10.6,1.5,21.2,2.9,31.9,4.4c10.6,1.4,21.4,2.5,32.1,3.7c21.4,2.7,43,4.3,64.6,6.3c10.8,1.1,21.7,1.5,32.5,2.3
			s21.7,1.5,32.6,2l32.8,1.2l16.4,0.6l16.5,0.2l33,0.4c11,0,22.1-0.3,33.1-0.4c22.2-0.1,44.3-1.2,66.5-2c11.1-0.3,22.2-1.3,33.4-1.9
			c11.1-0.8,22.3-1.3,33.4-2.3c22.3-2.1,44.7-3.7,67-6.6c11.2-1.3,22.4-2.5,33.6-4s22.4-3.1,33.6-4.7s22.4-3.4,33.6-5.2
			s22.4-3.7,33.6-5.7c22.3-4.4,44.8-8.3,67.1-13.5c44.8-9.4,89.2-21.1,133.7-33.6c22.1-6.6,44.4-13,66.4-20.5
			c22.1-7,44-14.9,65.9-22.7c11-3.9,21.8-8.3,32.7-12.4l16.4-6.2c5.4-2.1,10.8-4.4,16.3-6.6l32.5-13.4c10.7-4.7,21.5-9.4,32.2-14.1
			c542.7-241.7,953.5-707.3,1125.6-1275.9c57.7-191.1,86.8-391.4,86.6-591.8s-29.8-400.6-87.8-591.4
			C4122,1244.4,3711,780.3,3168.8,539.8c-10.7-4.7-21.5-9.4-32.2-14l-32.5-13.2c-5.4-2.2-10.8-4.5-16.2-6.5l-16.3-6.2
			c-10.9-4.1-21.7-8.4-32.7-12.3c-21.9-7.7-43.7-15.6-65.8-22.5c-21.9-7.4-44.1-13.7-66.2-20.3c-44.4-12.4-88.7-24-133.4-33.2
			c-22.2-5.1-44.7-8.9-66.9-13.3c-11.2-2-22.4-3.7-33.5-5.6s-22.3-3.7-33.5-5.2l-33.5-4.6c-11.2-1.5-22.3-2.6-33.5-3.9
			c-22.3-2.8-44.6-4.4-66.8-6.4c-11.1-1-22.2-1.5-33.3-2.2c-11.1-0.6-22.2-1.6-33.3-1.9c-22.1-0.8-44.2-1.9-66.3-1.9
			c-11-0.1-22.1-0.3-32.9-0.3l-33.1,0.5l-16.5,0.2l-16.3,0.6c-10.9,0.4-21.8,0.8-32.6,1.3c-10.9,0.5-21.7,1.4-32.5,2
			s-21.6,1.2-32.4,2.3c-21.5,2-43,3.6-64.4,6.3c-10.7,1.3-21.3,2.4-31.9,3.8s-21.2,3-31.7,4.5l-15.8,2.2l-15.7,2.6
			c-10.5,1.8-20.9,3.5-31.4,5.2c-10.4,1.9-20.8,4-31.2,5.9s-20.7,3.8-31,6.2c-20.5,4.5-41.1,8.8-61.3,14
			c-79.9,19.3-158.5,43.6-235.4,72.7c-75.6,28.6-148.3,60.9-217.5,96.9c-67.9,35.3-133.8,74.3-197.3,116.8
			c-227.1,152.5-421.4,349-571.3,577.8c-62.4,95.1-116.6,195.3-162,299.6c-10.8,24-20.2,48.1-29.7,71.4
			c-8.9,23.6-17.9,46.6-25.6,69.5c-8.3,22.7-15.1,45.2-22.3,67.1c-3.3,11-6.5,21.9-9.7,32.7c-1.6,5.4-3.2,10.7-4.8,16
			c-1.5,5.3-2.9,10.7-4.3,15.9c-20.6,75-36.9,151.1-48.8,227.9c-10.4,67.1-15.6,124.6-19,171.3c-0.7,11.7-1.4,22.7-2.1,33
			c-0.7,10.3-0.8,19.9-1.2,28.9s-0.6,17.1-0.9,24.6s-0.2,14.3-0.4,20.3c-0.3,24.2-0.4,36.7-0.4,36.7L296.3,2403.1z"/>
		<path class="st1" d="M3682.4,1336.1c0,199.8,161.9,361.7,361.7,361.7c199.8,0,361.7-161.9,361.7-361.7s-161.9-361.7-361.7-361.7
			S3682.4,1136.3,3682.4,1336.1z"/>
		<circle class="st1" cx="3168" cy="398" r="398"/>
		<path class="st1" d="M1081.1,466.8c0,227.6,184.5,412.2,412.2,412.2s412.2-184.5,412.2-412.2S1720.9,54.6,1493.3,54.6
			S1081.1,239.2,1081.1,466.8z"/>
		<path class="st1" d="M841.4,1426c0,206.1-167,373.1-373.1,373.1S95.2,1632.1,95.2,1426s167-373.1,373.1-373.1
			S841.4,1220,841.4,1426z"/>
		
			<ellipse transform="matrix(0.7071 -0.7071 0.7071 0.7071 -597.2537 3740.1221)" class="st1" cx="4216.1" cy="2591" rx="278.5" ry="278.5"/>
		<path class="st1" d="M1480.5,4377.4c0,177.2,143.6,320.8,320.8,320.8s320.8-143.6,320.8-320.8s-143.6-320.8-320.8-320.8
			S1480.5,4200.2,1480.5,4377.4z"/>
		<path class="st1" d="M3726.2,3686.1c0,199.8,161.9,361.7,361.7,361.7s361.7-161.9,361.7-361.7s-162-361.7-361.7-361.7
			S3726.2,3486.3,3726.2,3686.1z"/>
		
			<ellipse transform="matrix(0.7071 -0.7071 0.7071 0.7071 -2465.3965 1478.5464)" class="st1" cx="552.1" cy="3715.3" rx="398" ry="398"/>
		<path class="st1" d="M0,2620.3C0,2820,161.9,2982,361.7,2982s361.7-161.9,361.7-361.7s-161.9-361.7-361.7-361.7S0,2420.5,0,2620.3
			z"/>
		<polygon class="st0" points="1833.8,4503.6 1770.2,4503.6 1770.2,4440 1706.6,4440 1706.6,4440 1706.6,4360.5 1770.2,4360.5 
			1770.2,4297 1833.8,4297 1833.8,4360.5 1897.4,4360.5 1897.4,4440 1833.8,4440 		"/>
		<polygon class="st2" points="1770.2,4297 1833.8,4297 1833.8,4360.5 1897.4,4360.5 1897.4,4440 1833.8,4440 1833.8,4503.6 
			1770.2,4503.6 1770.2,4440 1706.6,4440 1706.6,4440 1706.6,4360.5 1770.2,4360.5 		"/>
		<polygon class="st2" points="1770.2,4297 1833.8,4297 1833.8,4360.5 1897.4,4360.5 1897.4,4440 1833.8,4440 1833.8,4503.6 
			1770.2,4503.6 1770.2,4440 1706.6,4440 1706.6,4440 1706.6,4360.5 1770.2,4360.5 		"/>
		<path class="st3" d="M1564.2,4288.6v219.3c0.1,32.7,26.6,59.3,59.3,59.4h356.9c32.8-0.1,59.3-26.6,59.4-59.4v-219.3
			c0-32.6-26.7-55.2-59.4-55.2h-67.2v-0.1h-31.8v0.1h-258C1590.9,4233.4,1564.2,4256,1564.2,4288.6z M1706.6,4360.5h63.6V4297h63.6
			v63.6h63.6v79.4h-63.6v63.6h-63.6V4440h-63.6V4360.5z"/>
		<path class="st3" d="M1881.5,4210.3c0-14.6-13-27.6-27.6-27.6H1750c-14.5,0-27.5,13-27.5,27.6v23.1h-31.8v-23.1
			c0.1-32.7,26.6-59.3,59.3-59.4h103.9c32.8,0.1,59.3,26.6,59.4,59.4v23h-31.8L1881.5,4210.3z"/>
		<path class="st0" d="M1358.6,349.2l-18.7,142.5l-96.7,28.8c0,0-5.1,69.5-20.4,78s-45.8-1.7-45.8-1.7V529l66.2-62.8l28.8-106.9
			L1358.6,349.2z"/>
		<rect x="1480.3" y="342.4" class="st0" width="207.8" height="173.4"/>
		<path class="st3" d="M1245.7,626c0,36.7,29.8,66.4,66.4,66.4c36.7,0,66.4-29.8,66.4-66.5c0-36.7-29.8-66.4-66.4-66.4
			C1275.4,559.6,1245.7,589.3,1245.7,626z M1325.5,640.6c-8.1,7.4-20.6,6.9-28-1.2c-3.4-3.7-5.2-8.4-5.2-13.4c0-1.2,0.1-2.4,0.3-3.6
			c1.9-10.8,12.2-17.9,23-16c8.2,1.5,14.5,7.8,16,16c0.2,1.2,0.4,2.4,0.4,3.6C1332,631.6,1329.6,636.9,1325.5,640.6L1325.5,640.6z"
			/>
		<path class="st3" d="M1650.2,626c0,36.7,29.8,66.5,66.5,66.4c36.7,0,66.4-29.8,66.4-66.5c0-36.7-29.8-66.4-66.5-66.4l0,0
			C1679.9,559.5,1650.2,589.3,1650.2,626z M1696.8,626c0-1.2,0.1-2.4,0.3-3.6c1.9-10.8,12.2-17.9,23-16c8.2,1.5,14.5,7.8,16,16
			c0.2,1.2,0.3,2.4,0.3,3.6c-0.2,11-9.3,19.6-20.3,19.4C1705.6,645.2,1697,636.6,1696.8,626L1696.8,626z"/>
		<path class="st3" d="M1449.2,324.2v217h246.6v-217H1449.2z M1507.3,410.3h48.1v-48h48.1v48h48v48.1h-48v48h-48.1v-48h-48.1V410.3z
			"/>
		<path class="st4" d="M1160.6,581c0,10.6,0.3,21.4,0.3,32c25.3,0,50.6,0,76-0.3c8.3-36.7,44-66.2,82.3-60.7
			c33.8,1.9,57.6,30,67.8,59.9v2.7h256.1c6.3-40.6,44.4-68.5,85-62.2c32,5,57.2,30.1,62.2,62.2h13.6V299.3h-313.1v-1h-73.4v1H1387
			v17.1c-38.9-0.3-77.9-0.5-117.1,0c3.1,38.4-15.3,73.2-24.2,109.6c-5.6,14-4.7,34-21.1,40.4c-16.4,8.1-33.1,15.6-49.5,23.1
			c-1.1,30.3-0.3,60.4-0.6,90.7C1169.8,580.5,1165.3,580.8,1160.6,581z M1482.2,434.3c0-53.7,43.5-97.2,97.2-97.2
			c53.7,0,97.2,43.5,97.2,97.2s-43.5,97.2-97.2,97.2l0,0C1525.8,531.5,1482.3,488,1482.2,434.3L1482.2,434.3z M1251.6,460.8
			c7.8-29.5,17.3-58.4,25-87.6c19.8-0.8,39.8-0.6,59.6-0.6c1.1,29.5,0.6,59,0.3,88.5C1308.1,461.1,1280,461.4,1251.6,460.8
			L1251.6,460.8z M1178,551.9c17.2-0.3,34.4-0.3,51.6,0c0.3,10.4,0.3,20.5,0,30.8c-17.2,0.3-34.7,0.3-51.9-0.3
			C1177.4,572.3,1177.4,562.3,1178,551.9z"/>
		<path class="st3" d="M1417.3,258.8c0-20.3,16.5-36.8,36.8-36.8s36.8,16.5,36.8,36.8c0,6.8,0,31.6,0,39.5h-73.4
			C1417.3,290.3,1417.3,265.6,1417.3,258.8z"/>
		<path class="st4" d="M1411.7,296.8c0,3.7,3,6.7,6.7,6.7c0,0,0,0,0,0h73.8c3.7,0,6.7-3,6.7-6.7l0,0c0-3.7-3-6.7-6.7-6.7l0,0h-73.8
			C1414.6,290.1,1411.7,293.1,1411.7,296.8C1411.7,296.8,1411.7,296.8,1411.7,296.8z"/>
		<path class="st3" d="M2887.1,360c0,11.7,1.4,23.4,4.1,34.8c0.1,0.4,0.2,0.8,0.3,1.2c0.1,0.6,0.3,1.3,0.5,2
			c5,20.6,14.1,40.5,25.5,59.5c14.9,24.7,34.1,47.6,53.9,68h154.3c5,0,9.4,3,11.3,7.6l25,65.2l88.5-219.5c1.8-4.4,6-7.3,10.7-7.5
			c4.7-0.1,9,2.5,11.2,6.7l40.7,83.7h76.6c0.6,0,1.2,0.1,1.8,0.2c6.3-9.9,11.8-20.2,16.6-30.8c4.9-10.7,8.7-21.7,11.6-33.1
			c0.1-0.7,0.3-1.3,0.5-2c0.1-0.4,0.2-0.8,0.3-1.2c2.7-11.4,4.1-23.1,4.1-34.8c0-0.7,0-1.3,0-2c-0.8-58.6-35.8-111.3-89.5-134.7
			c-2.1-0.7-4.2-1.4-6.3-2c-60.6-24-129.7-5.2-169.9,46.1c-1.9,1.4-2.9,2.2-2.9,2.2l-0.2-0.1l0,0c-28.2-36.9-72-58.5-118.4-58.5
			h-1.3c-20.5,0-40.7,4.2-59.5,12.4c-26.4,9.3-50.7,28.8-70.3,62.3c-3.5,6.2-6.7,12.6-9.4,19.3c-6.9,16.9-10.2,34.9-9.8,53.1
			C2887.1,358.7,2887.1,359.3,2887.1,360z M3380.7,359.9c-0.3-0.7-0.5-1.4-0.6-2.2c-2.5-52.7-48.4-98.6-101.1-101.1
			c-4.2-0.2-7.7-5.4-7.8-11.5s4.1-10.9,9.4-10.6c63.4,3.1,118.5,58.2,121.6,121.6c0.1,1.3-0.2,2.5-0.7,3.7c-1.5,3.4-5.3,5.7-9.9,5.6
			C3386.6,365.4,3382.2,363,3380.7,359.9L3380.7,359.9z"/>
		<path class="st3" d="M3150.6,635.2c1.8,4.6,6.2,7.6,11.1,7.7h0.1c4.9,0,9.3-3,11.1-7.5l89.8-222.7l32.2,66.2
			c2,4.1,6.2,6.7,10.8,6.7h69.3c-51.6,67.5-127.2,117.5-143.6,129c-15.8,11.1-35.9,23.8-51.4,33.3c-14.9,9.7-23.8,14.6-23.8,14.6
			l-0.2-0.1l-0.2,0.1c0,0-8.9-4.9-23.8-14.6c-15.5-9.5-35.6-22.2-51.4-33.3c-10.6-7.4-46.2-31.1-84.1-65.3h121.2L3150.6,635.2z"/>
		<polygon class="st0" points="708.6,3774.7 414.9,3605.6 390.5,3619.5 368.9,3665.3 382.8,3689.6 667.7,3848.6 		"/>
		
			<rect x="567.7" y="3761.1" transform="matrix(0.4974 -0.8675 0.8675 0.4974 -2970.6606 2404.4941)" class="st4" width="44.5" height="10"/>
		<polygon class="st4" points="628.3,3813.7 650.4,3775.1 641.8,3770.1 619.7,3808.8 		"/>
		
			<rect x="593.2" y="3778.8" transform="matrix(0.4973 -0.8676 0.8676 0.4973 -2976.29 2431.1563)" class="st4" width="33" height="9.9"/>
		
			<rect x="638.3" y="3804.7" transform="matrix(0.4973 -0.8676 0.8676 0.4973 -2976.1084 2483.3159)" class="st4" width="32.9" height="9.9"/>
		<path class="st3" d="M391.1,3639.8c0,0,12.5-29,35.6-15.7l167.6,96.1l-32,55.8L391,3677.6C391,3677.6,374.6,3668.2,391.1,3639.8z"
			/>
		<path class="st2" d="M425.5,3617.5l275.3,157.8l-4.8,8.4l-0.2,0.3l-28.3,49.5l-0.2,0.3l-4.8,8.4l-277.2-158.9
			c0,0-16.9-15.5,0.9-46.5C386.1,3636.9,401.7,3603.9,425.5,3617.5z"/>
		<path class="st4" d="M365.7,3649.4c0-0.1,0.1-0.2,0.1-0.3l0,0L365.7,3649.4z"/>
		<path class="st4" d="M384.1,3616.5c2-2.2,4.2-4.3,6.5-6.2c-2.2,2-4.3,4.1-6.3,6.4L384.1,3616.5z"/>
		<polygon class="st2" points="344.8,3622.1 345,3621.7 345,3621.7 		"/>
		<polygon class="st2" points="350.3,3612.5 350.5,3612.1 350.3,3612.5 		"/>
		<path class="st5" d="M350.3,3612.5l0.2-0.4c2.3-4.1,9.4-4.4,15.8-0.7l10.4,5.9c1.5-2.2,4.4-2.8,6.6-1.5c0.3,0.2,0.6,0.4,0.8,0.6
			c-8.4,9.4-14.7,20.5-18.3,32.6c-2.7-0.7-4.3-3.4-3.7-6c0.1-0.3,0.2-0.7,0.3-1l-10.4-5.9c-6.4-3.7-9.7-9.9-7.4-14l0.2-0.4l0,0
			L350.3,3612.5L350.3,3612.5z"/>
		<polygon class="st0" points="223.6,3539.9 350.3,3612.5 345,3621.7 233.8,3558 		"/>
		<path class="st2" d="M425.5,3617.5l275.3,157.8l-4.8,8.4l-0.2,0.3l-28.3,49.5l-0.2,0.3l-4.8,8.4l-277.2-158.9
			c0,0-16.9-15.5,0.9-46.5C386.1,3636.9,401.7,3603.9,425.5,3617.5z"/>
		<path class="st4" d="M376.2,3689.8L376.2,3689.8l280,160.5l-5.6,9.8l17.4,10l4.7-8.2l9.3-16.3l33.5-58.8l0.4-0.2l12-20.9l-17.4-10
			l-5.5,9.6l-280-160.5c-13.6-7.8-25.6-2.3-34.3,5.4c-2.2,2-4.3,4.1-6.3,6.4l-0.2-0.2c-8.4,9.4-14.7,20.5-18.3,32.6l0,0l-0.1,0.3
			C361.4,3662.1,359.3,3680.1,376.2,3689.8z M386.1,3636.8c0,0,15.6-33,39.4-19.4l275.3,157.8l-4.8,8.4l-0.2,0.3l-28.3,49.5
			l-0.2,0.3l-4.8,8.4l-277.2-158.9C385.2,3683.4,368.4,3667.8,386.1,3636.8L386.1,3636.8z"/>
		<polygon class="st6" points="682,3845.6 715.5,3786.9 715.9,3786.6 713.5,3790.9 834,3860 802.6,3914.8 		"/>
		<polygon class="st4" points="834,3860 852.5,3827.8 875.1,3840.8 806.9,3959.7 784.3,3946.7 802.6,3914.8 		"/>
		<rect x="401" y="1221.3" class="st7" width="170.7" height="53"/>
		<path class="st8" d="M306.9,1372.1c0-68.4,48.3-123.9,107.8-123.9H558c59.5,0,107.8,55.5,107.8,123.9v277.7
			c0,3.8-0.2,7.6-0.5,11.3c0.1,0.6,0.1,1.3,0.2,1.9c0,2-0.4,4.1-1.1,6c-0.1,0.4-0.1,0.9-0.2,1.4h-0.5c-2.3,4.7-6.5,7.8-11.5,7.8
			H320.5c-5,0-9.2-3.2-11.5-7.8h-0.5c-0.1-0.5-0.1-0.9-0.2-1.4c-0.7-1.9-1.1-4-1.1-6c0-0.6,0.1-1.2,0.2-1.9
			c-0.3-3.7-0.5-7.5-0.5-11.3V1372.1z"/>
		<path class="st9" d="M334.5,1508.4c0,39,27.5,70.6,61.4,70.6h180.9c33.9,0,61.4-31.6,61.4-70.6v-47.8c0-39-27.5-70.6-61.4-70.6
			H395.9c-33.9,0-61.4,31.6-61.4,70.6V1508.4z"/>
		<rect x="378.3" y="1420.3" class="st10" width="216.1" height="28.5"/>
		<rect x="378.3" y="1472.5" class="st10" width="216.1" height="28.5"/>
		<rect x="401.7" y="1524.8" class="st10" width="169.2" height="28.5"/>
		<rect x="443.1" y="1150.9" class="st11" width="8.5" height="70.4"/>
		<rect x="462.6" y="1150.9" class="st11" width="8.5" height="70.4"/>
		<rect x="580.1" y="1150.9" class="st11" width="8.6" height="70.4"/>
		<rect x="560.5" y="1150.9" class="st11" width="8.5" height="70.4"/>
		<rect x="482.2" y="1150.9" class="st11" width="8.5" height="70.4"/>
		<rect x="501.8" y="1150.9" class="st11" width="8.6" height="70.4"/>
		<rect x="423.5" y="1150.9" class="st11" width="8.5" height="70.4"/>
		<rect x="540.9" y="1150.9" class="st11" width="8.5" height="70.4"/>
		<rect x="403.9" y="1150.9" class="st11" width="8.6" height="70.4"/>
		<rect x="384.4" y="1150.9" class="st11" width="8.5" height="70.4"/>
		<rect x="521.4" y="1150.9" class="st11" width="8.5" height="70.4"/>
		<rect x="365.8" y="1150.9" class="st11" width="7.5" height="70.4"/>
		<rect x="599.6" y="1150.9" class="st11" width="7.2" height="70.4"/>
		<line class="st2" x1="599.6" y1="1150.9" x2="588.6" y2="1150.9"/>
		<rect x="588.6" y="1150.9" class="st12" width="11" height="70.4"/>
		<line class="st2" x1="580.1" y1="1150.9" x2="569.1" y2="1150.9"/>
		<rect x="569.1" y="1150.9" class="st12" width="11" height="70.4"/>
		<line class="st2" x1="560.5" y1="1150.9" x2="549.5" y2="1150.9"/>
		<rect x="549.5" y="1150.9" class="st12" width="11" height="70.4"/>
		<line class="st2" x1="540.9" y1="1150.9" x2="529.9" y2="1150.9"/>
		<rect x="529.9" y="1150.9" class="st12" width="11" height="70.4"/>
		<line class="st2" x1="521.4" y1="1150.9" x2="510.3" y2="1150.9"/>
		<rect x="510.3" y="1150.9" class="st12" width="11" height="70.4"/>
		<line class="st2" x1="501.8" y1="1150.9" x2="490.8" y2="1150.9"/>
		<rect x="490.8" y="1150.9" class="st12" width="11" height="70.4"/>
		<line class="st2" x1="482.2" y1="1150.9" x2="471.2" y2="1150.9"/>
		<rect x="471.2" y="1150.9" class="st12" width="11" height="70.4"/>
		<line class="st2" x1="462.6" y1="1150.9" x2="451.6" y2="1150.9"/>
		<rect x="451.6" y="1150.9" class="st12" width="11" height="70.4"/>
		<line class="st2" x1="443.1" y1="1150.9" x2="432.1" y2="1150.9"/>
		<rect x="432.1" y="1150.9" class="st12" width="11" height="70.4"/>
		<line class="st2" x1="423.5" y1="1150.9" x2="412.5" y2="1150.9"/>
		<rect x="412.5" y="1150.9" class="st12" width="11" height="70.4"/>
		<line class="st2" x1="403.9" y1="1150.9" x2="392.9" y2="1150.9"/>
		<rect x="392.9" y="1150.9" class="st12" width="11" height="70.4"/>
		<line class="st2" x1="384.4" y1="1150.9" x2="373.4" y2="1150.9"/>
		<rect x="373.4" y="1150.9" class="st12" width="11" height="70.4"/>
		<path class="st0" d="M377.3,1587.1c19.7,13.1,26.6,38.8,16.2,60l-77.7-51.8C331.3,1577.6,357.6,1574,377.3,1587.1z"/>
		<path class="st0" d="M325,1665.5c-19.7-13.1-26.6-38.8-16.2-60l77.7,51.8C371.1,1675.1,344.7,1678.6,325,1665.5z"/>
		<path class="st13" d="M4060.4,2661.9c0.6-74,52.7-122.3,122.2-137.5v-116.7h-10.2c-8.3,0.7-15.5-5.5-16.2-13.7s5.5-15.5,13.7-16.2
			c0.8-0.1,1.6-0.1,2.4,0h43.6v284.1H4060.4z"/>
		<path class="st14" d="M4216.1,2377.8h43.6c8.3,0.7,14.4,7.9,13.7,16.2c-0.6,7.3-6.4,13.1-13.7,13.7h-10.2v116.6
			c69.5,15.3,121.6,63.6,122.2,137.5h-155.7V2377.8z"/>
		<path class="st15" d="M4371.8,2661.9c0,0.4,0.1,0.8,0.1,1.3c0,86-68.2,141.1-154.3,141.1c-0.5,0-1-0.1-1.5-0.1v-142.3H4371.8z"/>
		<path class="st3" d="M4060.3,2663.1c0-0.4,0.1-0.8,0.1-1.3h155.7v142.3C4130.8,2803.6,4060.3,2748.6,4060.3,2663.1z"/>
		<path class="st4" d="M414.4,2487.3h-50.2c-4.2,0.2-7.6-3.1-7.8-7.3c-0.2-4.2,3.1-7.6,7.3-7.8c0.2,0,0.4,0,0.5,0h50.2
			c4.2-0.2,7.6,3.1,7.8,7.3c0.2,4.2-3.1,7.6-7.3,7.8C414.8,2487.3,414.6,2487.3,414.4,2487.3z"/>
		<path class="st4" d="M414.4,2442.2h-50.2c-4.2,0-7.5-3.4-7.5-7.5s3.4-7.5,7.5-7.5h50.2c4.2,0,7.5,3.4,7.5,7.5
			S418.6,2442.2,414.4,2442.2z"/>
		<path class="st3" d="M310,2501.4c-24.8,0-56.6,6.3-69.9,9.3v112.6c0,0,27.6,55.7,120.4,55.7s105.1-59.8,105.1-59.8v-108.6
			c-15.7-3.2-55.9-9.6-84.3,1.5C381.3,2512.1,342.3,2501.4,310,2501.4z M356.7,2615.4c0-4.2,3.4-7.5,7.5-7.5c0,0,0,0,0,0h50.2
			c4.2,0,7.5,3.4,7.5,7.5s-3.4,7.5-7.5,7.5l0,0h-50.2C360,2623,356.7,2619.6,356.7,2615.4C356.7,2615.4,356.7,2615.4,356.7,2615.4
			L356.7,2615.4z M356.7,2574c0-4.2,3.4-7.5,7.5-7.5c0,0,0,0,0,0h50.2c4.2,0,7.5,3.4,7.5,7.5s-3.4,7.5-7.5,7.5l0,0h-50.2
			C360,2581.6,356.7,2578.2,356.7,2574C356.7,2574,356.7,2574,356.7,2574L356.7,2574z M356.7,2532.6c0-4.2,3.4-7.5,7.5-7.6
			c0,0,0,0,0,0h50.2c4.2,0,7.5,3.4,7.5,7.5s-3.4,7.5-7.5,7.5h-50.2C360,2540.1,356.7,2536.7,356.7,2532.6
			C356.7,2532.6,356.7,2532.6,356.7,2532.6L356.7,2532.6z"/>
		<path class="st4" d="M220.6,2353.3v262.1c0.1,47.1,38.3,85.3,85.4,85.4h15.1c0.3,8.2,10.1,15.1,23.4,17.5v48.6H344
			c-7.9,0-14.2,6.4-14.3,14.2v49.4c0,7.9,6.4,14.2,14.3,14.2h0.5v89.9h20.1v-89.9h0.4c7.9,0,14.2-6.4,14.3-14.2v-49.4
			c0-7.8-6.4-14.2-14.3-14.2h-0.5v-48.6c13.3-2.4,23-9.2,23.3-17.5H403c47.1-0.1,85.3-38.3,85.4-85.4v-262.1
			c0-11.1-9-20.1-20.1-20.1c0,0,0,0,0,0H240.6C229.6,2333.2,220.6,2342.2,220.6,2353.3C220.6,2353.3,220.6,2353.3,220.6,2353.3z
			 M240.2,2386.9h225.4v232.3c0,0-12.3,59.8-105.1,59.8s-120.4-55.7-120.4-55.7V2386.9L240.2,2386.9z"/>
		<polygon class="st16" points="4058.8,1174.1 4178.9,1500.6 4147.4,1559.4 4085.3,1542.9 3959.3,1208.1 		"/>
		<polygon class="st17" points="3967.2,1208 4089.3,1535.6 4134.4,1553.9 4149.5,1548.3 4171.6,1504.9 4049.6,1177.3 4066,1170.2 
			4189.9,1502.8 4158.8,1563.8 4181.9,1626 4171.6,1629.8 4171.1,1630.1 4160.8,1633.9 4137.6,1571.7 4074,1545.9 3950.1,1213.4 		
			"/>
		<polygon class="st3" points="4104.4,1342.1 4162.5,1497.8 4144.3,1537.7 4131.4,1542.5 4091.6,1524.2 4033.5,1368.5 		"/>
		<path class="st3" d="M3945.9,1180.2l-21.5-57.8c-10.4-28,3.8-59.2,31.8-69.7c0,0,0,0,0,0l40.4,108.6L3945.9,1180.2z"/>
		<path class="st18" d="M3956.2,1052.7c28-10.4,59.2,3.8,69.7,31.8c0,0,0,0,0,0l21.5,57.8l-50.8,18.9L3956.2,1052.7z"/>
		<path class="st19" d="M4047.4,1142.3l18.1-6.7c10.1-3.8,21.7,2.2,25.8,13.4s-0.6,23.3-10.8,27l-68.9,25.7l-5.5-14.8l-9.5-25.6
			L4047.4,1142.3z"/>
		<path class="st17" d="M3927.8,1186.9l18.1-6.7l50.8-18.9l9.5,25.6l5.5,14.8l-68.9,25.7c-10.1,3.8-21.7-2.2-25.8-13.4
			S3917.7,1190.7,3927.8,1186.9z"/>
		<path class="st3" d="M4190.2,3507.6c0.8,0.7,1.5,1.4,2.3,2.2l50-38.6c0,0-12.4-121-144.2-126.3
			c-131.8,7.1-144.5,126.1-144.5,126.1l51.2,39.5c1.9-2.1,3.1-3.1,3.1-3.1v0.1c23.4-24.1,58.1-39.7,103.7-33.2c0,0,43.2,1.3,78.2,33
			l0,0L4190.2,3507.6z M4143.1,3424.4h-31.3v31.4h-27.3v-31.4h-31.4v-27.3h31.4v-31.3h27.3v31.3h31.3V3424.4z"/>
		<path class="st19" d="M4100.9,3832l3,5.8v0.1l2.9-5.9l41-80.5l1.3-2.3l1.3-2.7l-0.7-3.1l-3.9-16.6c5.4-2.5,10.5-5.5,15.4-8.8
			c15.5,24.3,66.2,22.1,66.2,22.1c-14.5-28.8-1.6-31.9,3.9-106.2l0,0c1.7-10.1,1.9-20.4,0.7-30.6c-5.4-39.4-21-65.7-39.3-83.3
			c-0.8-0.7-1.5-1.5-2.3-2.2l-0.3-0.3l0,0c-35-31.8-78.2-33-78.2-33c-45.6-6.5-80.3,9.1-103.7,33.2v-0.1c0,0-1.2,1-3.1,3.1
			c-10.3,11-42.7,50.6-38.1,113.2c5.5,74.4,18.4,77.5,3.8,106.2c0,0,47.4,2.1,64.5-19.7c3.6,1.1,7.3,1.9,11,2.3
			c4.2,2.4,8.5,4.5,13,6.4l-3.1,13.1l-0.3,1.1l3.6,7.6L4100.9,3832z M4144.7,3722c-0.5,0.2-0.9,0.4-1.4,0.7
			c-40.5,18.9-88.5,9.5-118.9-23.1c-17.4-25.7-18.8-60.7-15.9-79.5c71.6-27.1,103.2-77.4,103.2-77.4c28.3,77.4,94.8,63,75,128.4
			c-4.9,18.2-13.1,30.1-21.3,38C4159,3714.1,4152.1,3718.5,4144.7,3722z M4103.8,3826.1l-42.4-83.3l0.1-0.3l2.7-11.6
			c24.9,8.8,52.2,8,76.6-2l4,16.9L4103.8,3826.1z"/>
		<path class="st17" d="M4134.3,3626c0-5.1,4.2-9.3,9.3-9.3s9.3,4.2,9.3,9.3s-4.2,9.3-9.3,9.3S4134.3,3631.1,4134.3,3626
			L4134.3,3626z"/>
		<path class="st17" d="M4058.7,3634.1c-4.8,0-8.7-3.9-8.7-8.7c0-4.8,3.9-8.7,8.7-8.7c4.8,0,8.7,3.9,8.7,8.7c0,0,0,0,0,0
			C4067.4,3630.2,4063.5,3634.1,4058.7,3634.1z"/>
		<path class="st19" d="M4153.5,3746.3c43.9,11,81.1,34.7,105.3,65.9c18.9,24.4,29.9,53.4,29.9,84.6h-177V3834h49.1L4153.5,3746.3z"
			/>
		<path class="st19" d="M3849.9,3848.4l7.3-3.3c19.1-8.7,38.1-4,50.7,1.4l4,1.7l2.5,1.1l0.5-9.6l1.8-37.7
			c1.1-17.8-12.5-33.1-30.3-34.2c-17.8-1.1-33.1,12.5-34.2,30.3c0,0.3,0,0.5,0,0.8L3849.9,3848.4z M3860.4,3833.3l1.6-34
			c0.8-12.4,11.5-21.7,23.9-20.9c12,0.8,21.3,11,20.9,23l-1.6,33.4C3893.9,3831,3877.5,3828,3860.4,3833.3L3860.4,3833.3z"/>
		<path class="st20" d="M3921.7,3845l0.6,0.3l0.5,0.2l-1.3,0.2L3921.7,3845z"/>
		<path class="st19" d="M3920.1,3850.3l0.6,0.3l0.5,0.3l6.7-0.9c20.7-2.8,37.7,7,48.2,15.8l5.4,4.5l15.7-44.6
			c6.1-16.7-2.5-35.3-19.2-41.4s-35.3,2.5-41.4,19.2c-0.1,0.2-0.2,0.5-0.3,0.7l-1.2,3.4l-11.3,32l-3,8.5L3920.1,3850.3z
			 M3934.3,3839.6l11.3-32.1c4.3-11.6,17.1-17.6,28.8-13.4c11.4,4.2,17.5,16.7,13.5,28.3l-11.1,31.5
			C3967,3846.9,3952.2,3839.4,3934.3,3839.6L3934.3,3839.6z"/>
		<path class="st3" d="M3848.6,3895.3c-0.8,17,12.3,31.5,29.3,32.3c7.5,0.4,14.8-2,20.7-6.6c1.3-1,2.5-2.1,3.6-3.4
			c0.5-0.5,0.9-1,1.4-1.6s1-1.3,1.4-1.9c2.4-3.6,4.1-7.7,4.8-12c0.2-1.3,0.4-2.6,0.4-3.9l0.8-16.1l0.8-15.7l0.6-13.2l0.1-2.3
			l-0.4-0.2l-1.3,0.2l0.3-0.7c-0.9-0.4-1.9-0.9-3-1.4c-8.6-3.9-23.3-8.6-39.2-5.4c0.3,0.5-5.4,1.4-5.4,1.4
			c-4.3,1.4-8.4,3.3-12.2,5.7l-0.6,0.4L3848.6,3895.3z M3857.3,3853.5l14.6-4.4c-7,4.1-8,8.9-8,8.9c-14.7,45.2,0.9,60.3,0.9,60.3
			C3843,3905.3,3857.3,3853.5,3857.3,3853.5L3857.3,3853.5z"/>
		<path class="st3" d="M3909.3,3919.5c0.6-0.6,3.6-3.9,3.8-4.2s0.6-0.8,0.9-1.2s0.6-0.9,0.9-1.4c2-3.3,3.3-6.9,4-10.6
			c0.2-1.3,0.4-2.6,0.4-3.9l0.8-16.1l1.4-28.9c9.8-3.5,21.2-1.3,21.2-1.3l0,0c17.1,2.5,30.1,13.1,35.9,18.7l0.7,0.6l-10.8,30.7
			l-4.9,13.9c-5.6,16.1-23.2,24.5-39.2,18.9c-7.1-2.5-13-7.4-16.7-14C3908.2,3920.5,3908.8,3920,3909.3,3919.5z"/>
		<path class="st19" d="M3989,3870.3c0.5-1.1,1-2.1,1.4-3.2c0,0,0.1-0.1,0.1-0.1c0.4-0.7,0.7-1.4,1.1-2.1c0-0.1,0.1-0.2,0.1-0.3
			l0.4,0.4l15.7-44.6c5.9-16.8-3-35.3-19.8-41.2c-4.5-1.6-9.3-2.1-14.1-1.6c22.6-16,49.8-27.8,79.8-33.7l-7.5,90.1h50.2v62.9H3979
			l8.4-23.8C3988,3872.2,3988.5,3871.3,3989,3870.3z"/>
		<path class="st1" d="M2951,4342.6c0,180.4,146.3,326.7,326.7,326.7s326.7-146.3,326.7-326.7s-146.3-326.7-326.7-326.7
			S2951,4162.1,2951,4342.6z"/>
		<path class="st0" d="M3371.1,4186.6c0-44.6-36.2-80.8-80.8-80.8s-80.8,36.2-80.8,80.8c0,44.6,36.2,80.8,80.8,80.8h0
			C3334.9,4267.4,3371,4231.2,3371.1,4186.6z"/>
		<path class="st0" d="M3414.9,4276.4c50.2,19.2,49.7,54.4,49.9,56.2l0.3,124.9c0,0.4,0.1,11.6-6.7,18.6c-3.7,3.8-9,5.8-15.7,5.8
			h-4.8L3414.9,4276.4z M3121.4,4528.6v-185.4c6.4-76,93.3-75.8,97.1-75.8h135.1l-41.6,156.3h-23.8c-19,0-34.3,15.5-34.3,34.5
			c0,18.9,15.4,34.2,34.3,34.3h96.4v58.2l-198.3,0.1l0.1-189.8l-12.6,16.3v145.5l-0.1,5.5c0.4,14.5-11.1,26.5-25.6,26.8
			c-14.5,0.4-26.5-11.1-26.8-25.6C3121.4,4529.2,3121.4,4528.9,3121.4,4528.6L3121.4,4528.6z M3298.8,4481.4h-10.5
			c-12.9,0-23.3-10.4-23.3-23.3s10.4-23.3,23.3-23.3l0,0h19.8C3303.2,4447.1,3296,4468.5,3298.8,4481.4L3298.8,4481.4z"/>
		<path class="st3" d="M3426.8,4481.4l-20.7-205c-7.7-2.7-11.4-6.5-41.1-8.7c0,0-58.6,207.5-54.9,213.1c0.2,0.3,0.4,0.5,1.4,0.5
			L3426.8,4481.4L3426.8,4481.4z"/>
		<path class="st21" d="M2127.4,2995.1l0.1-16c0.9-17.1,1.9-35.4,2.8-54.8l-150.6,289.1c-19.6,37.7-55.7,64.1-97.5,71.5l-366,6.9
			l-79.8,14.4l-124.7,33.2c210.7,214.8,489.3,362.6,801.2,408.7l3-363.1L2127.4,2995.1z"/>
		<path class="st21" d="M3700.4,2357.9c0-781-633.2-1414.2-1414.2-1414.2S872,1576.8,872,2357.9c0,176.7,32.4,345.8,91.6,501.7
			c-4.2-75.4,53.6-139.9,129-144.1c42.5-2.4,83.7,15.2,111.3,47.5c10.9,42.7,23.6,84.6,38.2,125.8l26.7,229l70.1-12.4l394.3-69.4
			l203.8-391.2c-21.3-87.3,32.3-175.3,119.6-196.6c12.6-3.1,25.5-4.6,38.5-4.6c0.9,0,1.8,0.1,2.6,0.1c0-0.3,0-0.6-0.1-0.8h137.1
			v-0.1c38-1.9,75.1-11.6,109.1-28.8c0.2,0.3,0.4,0.6,0.6,0.8l-16.1,9.5l-65.2,267.2l89.4,22.3l-59.6,111.7l250,494.6l46.5,68.3
			l59,117.2l0.3-6.2l26-74.1l303.3-599.8l-59.6-111.7l89.4-22.3l-65.2-267.2l-16.1-9.5c0.2-0.3,0.4-0.6,0.6-0.8
			c34,17.1,71.1,26.9,109.1,28.8v0.1h154.8c0,0,79.7-1.4,104.7,23.8l-102.8,381l-0.2-0.1v0.9l-0.1,0.4l0.1,0.3
			c0.4,128.7,3.7,272.6,12.3,421.8l-3.1-13.7l2.6,175.9C3508.1,3173.8,3700.4,2788.3,3700.4,2357.9z"/>
		<path class="st22" d="M3240.2,3262.2c-8.6-149.3-11.9-293.1-12.4-421.8l-0.1-0.3l0.1-0.5v-0.9l0.2,0.1l102.8-381
			c-25-25.1-104.7-23.8-104.7-23.8h-154.8v0c-38-1.8-75.1-11.6-109.1-28.8c-0.2,0.3-0.4,0.6-0.6,0.9l16.1,9.5l65.1,267.2l-89.4,22.4
			l59.6,111.7l-303.2,599.8l-26,74.1l-0.2,6.2l17.8,35.3l-23.3,185.6c207-54,399.1-154.3,561.6-293.4l-2.7-175.9L3240.2,3262.2z"/>
		<path class="st22" d="M999.3,2859.1l49.7,425.6c4.4,37.4,24,71.3,54.2,93.8c23.8,17.7,58.2-11.2,87.4-11.2c8,0,15.9-0.7,23.7-2.1
			l97.3-25.9c-137-139.5-243.5-305.8-313-488.6C998.7,2853.5,998.9,2856.3,999.3,2859.1z"/>
		<path class="st22" d="M2674.9,3718.7l8.7-221.8l-59-117.2l-46.5-68.3l-250-494.6l59.6-111.7l-89.4-22.4l65.1-267.2l16.1-9.5
			c-0.2-0.3-0.4-0.6-0.6-0.9c-34,17.1-71.1,26.9-109.1,28.8v0.1h-137.1l0.1,0.8c-0.9,0-1.8-0.1-2.6-0.1
			c-89.9,0-162.7,72.8-162.7,162.7c0,13,1.6,25.9,4.6,38.5l-203.8,391.2l-394.4,69.5l-70.1,12.3l-26.7-229
			c-14.5-41.1-27.3-83-38.2-125.8c-49.1-57.3-135.4-64-192.8-14.9c-32.3,27.7-49.9,68.9-47.5,111.4c69.5,182.7,176,349.1,313,488.6
			l124.7-33.2l79.8-14.4l366-6.9c41.9-7.4,77.9-33.8,97.5-71.5l150.6-289.1c-0.9,19.3-1.9,37.7-2.8,54.8l-0.1,16l-11.6,389.8
			l-3,363.1C2300.2,3775.7,2491.3,3765.7,2674.9,3718.7L2674.9,3718.7z"/>
		<path class="st22" d="M2678.1,3717.9l23.3-185.6l-17.8-35.3l-8.7,221.8L2678.1,3717.9z"/>
		<path class="st2" d="M2667.5,3554.1"/>
		<path class="st23" d="M3008.1,2419.6c-63.6-87.4-172.6-131.7-324-131.7c-171.6,0-292.4,45.6-359.1,135.6c0,0-0.1,0.1-0.1,0.1
			c13-3.6,38.9-12,70.6-29c65.1-50.7,161.8-76.3,288.6-76.3c110.6,0,196.4,24.6,256.1,73.4c21,10.5,52.3,23.3,69.5,30.1
			C3009.2,2421.1,3008.7,2420.3,3008.1,2419.6z"/>
		<path class="st2" d="M1373.9,3096.7c-38-69.5-70.4-142-96.8-216.7l26.7,229L1373.9,3096.7z"/>
		<path class="st24" d="M2667.4,3554.1L2667.4,3554.1z"/>
		<path class="st22" d="M1270.9,2827.4c-3.1-27-14.3-52.5-32-73.1c10.9,42.7,23.6,84.6,38.2,125.8L1270.9,2827.4z"/>
		<path class="st2" d="M2667.4,3554.1L2667.4,3554.1z"/>
		<polygon class="st25" points="2683.9,3490.8 2683.9,3486.9 2671.4,3486.9 2671.4,3492.6 2677.8,3508.1 		"/>
		<path class="st25" d="M2677.8,3508.1l-6.4-15.4v9.4h2.4c3.4,0,6.7,0,10-0.1v-11.2L2677.8,3508.1z"/>
		<path class="st2" d="M3227.8,2839.6l0.2-0.8l-0.2-0.1V2839.6z"/>
		<path class="st2" d="M2667.5,3554.1"/>
		<path class="st26" d="M3227.8,2840.4v-0.8l-0.1,0.5L3227.8,2840.4z"/>
		<path class="st27" d="M2667.5,3554.1"/>
		<path class="st28" d="M2845.3,2248.4l0.1,0.1v-54.9h-335.6v79.4h-1.1c-14,31.1-33.8,59.3-58.1,83.1
			C2712.6,2381.2,2845.3,2248.4,2845.3,2248.4z"/>
		<path class="st29" d="M2845.5,2299.7v-51.2l-0.1-0.1c0,0-132.8,132.8-394.8,107.7c-20.2,19.8-43.3,36.4-68.6,49.1
			c33,47,76.8,85.3,127.8,111.7v73.8h0.4v5h319v-5h16.2v-80.9c45.9-26.2,85.4-62.3,115.6-105.6
			C2913.2,2381.2,2873.1,2344.9,2845.5,2299.7z"/>
		<path class="st30" d="M2908.2,2461.2c-129.3,120.8-328.1,126.8-464.4,14l233.9,1033.2L2908.2,2461.2z"/>
		<polygon class="st31" points="2737.6,3338.6 2790.4,3209.3 2727.6,2621.8 2677.9,2607.3 2677.9,2606.7 2676.9,2607 2675.8,2606.7 
			2675.8,2607.3 2626.1,2621.8 2559,3248.3 2638.9,3399.8 2677.1,3506.8 2689.6,3484.6 2720.9,3396.3 		"/>
		<polygon class="st31" points="2752.8,2525.3 2675.1,2514.7 2597.4,2525.3 2582.3,2568.5 2619,2626.8 2675.1,2628.9 2731.3,2626.8 
			2767.9,2568.5 		"/>
		<polygon class="st32" points="2422.4,2380.7 2671.6,2514.7 2494.8,2691.6 2363.4,2415.6 		"/>
		<polygon class="st32" points="2921.4,2380.7 2672.2,2514.7 2849,2691.6 2977.1,2418.4 		"/>
		<path class="st29" d="M3104.6,1663.5c0-302.4-181.8-397.7-418.2-397.7c-2.9,0-5.8,0-8.7,0.1v1037.8
			C2913.6,2302.7,3104.6,1965.5,3104.6,1663.5z"/>
		<path class="st33" d="M2667,1266.2c-227.8,7.4-418.1,103.2-418.1,397.3c0,298.3,186.4,633.2,418.1,639.9c3.3,0.1,6.5,0.3,9.8,0.3
			h1V1265.9C2674.2,1266,2670.6,1266.1,2667,1266.2z"/>
		<path class="st34" d="M3133.1,1625.3c-10.2-135.3-65.4-233.1-65.4-233.1c36.9-164.6-117-210.4-279.2-214.4
			c-149.9-3.6-307,28.5-327.3,35.9c-22,8-52.9,10.8-77.4,11.6c-22.5,0.7-39.6-0.1-39.6-0.1c0.9,3.7,4.5,12.4,8.1,20.3
			c3.7,8.4,7.3,16.1,7.3,16.1c-4.3,0.4-12.1-1.7-21.6-5.2c-32.8-12-85.9-40.8-85.9-40.8c-5.7,44.2,4.8,83.5,16.8,111.8
			s25.4,45.6,25.4,45.6c-9.6,1.9-36.5-9.6-36.5-9.6c7.7,36.5,15.4,53.8,15.4,53.8c-57.7,42.1-71.1,163.8-72.2,259l99,115.6l34.2-83
			c0.7,0.1,1.4,0.1,2.2,0.2c24.2-87.3,44.3-218.9,44.3-218.9c258.2,165.8,495.8,33.3,536.8,7.9c7.8-8.5,11.9-13.7,11.9-13.7
			c14.6,165.9,126.8,278.1,126.8,278.1c-9.4-70.4,71.4-125.7,77.5-129.7l0.6-0.4C3134,1629.8,3133.5,1627.6,3133.1,1625.3z"/>
		<path class="st29" d="M3048.6,1734.1c-16.1,61.7-4.7,118.2,25.6,126.2s67.9-35.6,84.2-97.3s4.7-118.2-25.6-126.2
			S3064.8,1672.3,3048.6,1734.1z"/>
		<path class="st33" d="M2293.5,1735.7c16.8,60.3,7.9,115.4-19.6,123.1s-63.4-35-80.1-95.3s-8-115.5,19.5-123.1
			S2276.8,1675.3,2293.5,1735.7z"/>
		<path class="st2" d="M2670.6,3494.3l39.3-77.6c-29.1-30.7-90.6,32.6-90.6,32.6v15.2l33.4-5.8L2670.6,3494.3z"/>
		<polygon class="st25" points="2677.7,3508.3 2443.8,2475.2 2422.4,2380.7 2379.5,2406.1 2363.4,2415.6 2298.3,2682.8 
			2387.7,2705.1 2328.1,2816.9 		"/>
		<polygon class="st25" points="3050,2682.8 2984.9,2415.6 2984.2,2415.1 2924.4,2383.1 2908.2,2461.2 2677.7,3508.3 3020.2,2816.9 
			2960.6,2705.1 		"/>
		
			<rect x="919.8" y="1923" transform="matrix(0.9802 -0.1978 0.1978 0.9802 -489.0765 342.4229)" class="st35" width="1098.9" height="1392"/>
		
			<rect x="977.6" y="1996.3" transform="matrix(0.9802 -0.1978 0.1978 0.9802 -489.0771 342.4196)" class="st0" width="983.3" height="1245.5"/>
		
			<rect x="1015.8" y="2397.4" transform="matrix(0.9802 -0.1978 0.1978 0.9802 -460.7247 256.2972)" class="st36" width="73.3" height="73.3"/>
		
			<rect x="1153.9" y="2315.6" transform="matrix(0.9802 -0.1978 0.1978 0.9802 -436.5172 334.9329)" class="st36" width="608.4" height="73.3"/>
		
			<rect x="1043.2" y="2533.9" transform="matrix(0.9802 -0.198 0.198 0.9802 -487.5746 264.7043)" class="st36" width="73.3" height="73.3"/>
		
			<rect x="1182.2" y="2459.6" transform="matrix(0.9802 -0.1978 0.1978 0.9802 -465.2053 335.7899)" class="st36" width="531.7" height="73.3"/>
		
			<rect x="1071.1" y="2670.1" transform="matrix(0.9802 -0.198 0.198 0.9802 -513.9977 272.9104)" class="st36" width="73.3" height="73.3"/>
		
			<rect x="1210.2" y="2601" transform="matrix(0.9802 -0.1978 0.1978 0.9802 -493.1252 339.1307)" class="st36" width="481.1" height="73.3"/>
		
			<rect x="1098.6" y="2806.5" transform="matrix(0.9802 -0.198 0.198 0.9802 -540.4545 281.0721)" class="st36" width="73.3" height="73.3"/>
		
			<rect x="1236.3" y="2723.3" transform="matrix(0.9802 -0.1978 0.1978 0.9802 -515.3875 360.8445)" class="st36" width="623.9" height="73.3"/>
		<polygon class="st36" points="1205.8,3008.3 1134,3022.8 1119.5,2951 1191.3,2936.5 		"/>
		
			<rect x="1263.9" y="2859.7" transform="matrix(0.9802 -0.1978 0.1978 0.9802 -541.8304 368.987)" class="st36" width="623.9" height="73.3"/>
		<path class="st33" d="M831,2679.3c2.7,0,5.4-0.2,8.1-0.6l157.2-22.4c31-4.7,52.2-33.6,47.5-64.6c-4.7-30.5-32.9-51.7-63.5-47.7
			L823,2566.5c-31,4.5-52.5,33.2-48,64.2C779,2658.6,802.8,2679.3,831,2679.3z"/>
		<path class="st33" d="M822.9,2802.3l154-19.2c31.1-3.6,53.4-31.7,49.8-62.8c-3.6-31.1-31.7-53.4-62.8-49.8c-0.4,0-0.7,0.1-1.1,0.1
			l-154,19.3c-31.1,3.9-53.1,32.2-49.2,63.3C763.5,2784.1,791.9,2806.1,822.9,2802.3z"/>
		<path class="st33" d="M1009.7,2895.1c30.8-5.8,51.1-35.4,45.3-66.2c-5.8-30.8-35.4-51.1-66.2-45.3l-154,28.9
			c-30.8,5.8-51.1,35.4-45.3,66.2s35.4,51.1,66.2,45.3l0,0L1009.7,2895.1z"/>
		<path class="st33" d="M1084,2940c-4.6-27.6-30.7-46.3-58.4-41.8c0,0,0,0-0.1,0l-137.9,23c-27.7,4.6-46.3,30.8-41.7,58.5
			c4.1,24.4,25.2,42.3,50,42.4c2.8,0,5.6-0.2,8.4-0.7l137.9-23C1069.9,2993.8,1088.6,2967.7,1084,2940
			C1084,2940,1084,2940,1084,2940z"/>
		<path class="st22" d="M3400.5,2535.7c38.5,81.6,14.8,173.7-53,205.7s-154-8.2-192.5-89.8s-14.8-173.7,53-205.7
			S3361.9,2454.1,3400.5,2535.7z"/>
		<path class="st37" d="M2670.9,3254.4c0,10.4-8.4,18.9-18.9,18.9s-18.9-8.4-18.9-18.9s8.4-18.9,18.9-18.9
			S2670.9,3244,2670.9,3254.4L2670.9,3254.4z"/>
		<path class="st37" d="M2728.3,3260.1c0,10.4-8.4,18.8-18.9,18.8s-18.8-8.4-18.8-18.9c0-10.4,8.4-18.8,18.8-18.8
			C2719.8,3241.2,2728.3,3249.7,2728.3,3260.1C2728.3,3260.1,2728.3,3260.1,2728.3,3260.1z"/>
		<path class="st25" d="M3232.7,3285.2c-81.1-56.6-247.9-85-398.8-93.1l-73.5,149.9l477.4,22.5L3232.7,3285.2z"/>
		<path class="st23" d="M2267.8,2620.8c1.1,57.5,13.6,99.2,14.1,101l29.1-8.8c-0.5-1.6-46.1-157.8,38.5-271.6
			c13.1-17.6,28.6-33.3,45.9-46.8c-31.7,17-57.6,25.4-70.6,29C2286,2476,2266.3,2544.2,2267.8,2620.8z"/>
		<polygon class="st23" points="3015.5,2815.4 3030,2820 3015.5,2815.3 		"/>
		<path class="st23" d="M3009.7,2421.8c-17.2-6.9-48.5-19.7-69.5-30.1c16.3,13.3,30.9,28.7,43.3,45.7
			c54.7,75.1,60.7,173.3,56.1,242.5c-5.1,76.1-23.8,134.8-24,135.5l14.5,4.7l14.5,4.7c0.8-2.5,19.9-62.3,25.4-142
			C3077,2577.2,3056.2,2487.1,3009.7,2421.8z"/>
		<path class="st25" d="M3125.4,2820c0,51.2-41.5,92.6-92.6,92.6s-92.6-41.5-92.6-92.6s41.5-92.6,92.6-92.6h0
			C3083.9,2727.4,3125.4,2768.8,3125.4,2820z"/>
		<path class="st23" d="M3032.7,2919.2c-54.8,0-99.3-44.4-99.3-99.3c0-54.8,44.4-99.3,99.3-99.3c54.8,0,99.3,44.4,99.3,99.3
			c0,0,0,0,0,0.1C3131.9,2874.8,3087.5,2919.2,3032.7,2919.2z M3032.7,2734c-47.5,0-86,38.5-86,86s38.5,86,86,86s86-38.5,86-86l0,0
			C3118.7,2772.5,3080.2,2734,3032.7,2734L3032.7,2734z"/>
		<circle class="st38" cx="3032.7" cy="2820" r="67"/>
		<path class="st38" d="M2301.9,3320.8c-73.9-3.9-82.6-51.4-82.9-53.4l-49.6-296.7l22.5-3.8l49.6,296.7c0.2,1.1,6.9,31.4,61.6,34.3
			L2301.9,3320.8z"/>
		<path class="st38" d="M2472.9,3277.8c68.6-27.7,61.4-75.4,61.1-77.5l-49.6-296.7l-22.5,3.8l49.6,296.7c0.1,1.1,3.7,32-47.1,52.5
			L2472.9,3277.8z"/>
		<path class="st39" d="M2321.2,3284.4c21.7,4.3,37,19.2,34.2,33.2s-22.6,21.9-44.3,17.6s-37-19.2-34.2-33.2
			S2299.5,3280.1,2321.2,3284.4z"/>
		<path class="st39" d="M2442.6,3264.1c-19.1,11.1-28.8,30.2-21.6,42.6s28.5,13.4,47.7,2.2s28.8-30.2,21.6-42.6
			S2461.7,3253,2442.6,3264.1z"/>
		<path class="st39" d="M2163.1,2979c-0.4-2.6-10.7-65.1-2.4-131.8c11.6-93.3,54-148.7,122.5-160.1
			c162.5-27.2,206.5,224.5,208.3,235.2l-33.8,5.7c-0.4-2.3-40-228.6-168.8-207.1c-52.8,8.8-84.5,52.8-94.2,130.5
			c-7.7,61.8,2.1,121.3,2.2,121.9L2163.1,2979z"/>
		<path class="st3" d="M1343.9,2093.3c-59.1,11.1-98,67.9-87,127c11.1,59.1,67.9,98,127,87c59.1-11.1,98-67.9,87-127c0,0,0,0,0,0
			C1459.8,2121.1,1402.9,2082.2,1343.9,2093.3z M1439,2208.5l-49.5,9.3l9.3,49.5l-43.1,8.1l-9.3-49.5l-49.5,9.3l-8.1-43.1l49.5-9.3
			l-9.3-49.5l43.1-8.1l9.3,49.5l49.5-9.3L1439,2208.5z"/>
		<path class="st40" d="M1522.3,1860.8l-196.3,45.8l-198.8,34c0,0,22.7,62.9,2.4,129.6l212.7-42.9l15.4-3.1l216.1-43.6
			C1529.2,1926.8,1522.3,1860.8,1522.3,1860.8z"/>
		<path class="st36" d="M1576.1,1975.6c2.6,12.7-5.7,25.1-18.4,27.7l-408.3,82.4c-12.7,2.6-25.2-5.7-27.7-18.4l0,0
			c-2.6-12.7,5.7-25.2,18.4-27.7l408.3-82.4C1561.1,1954.6,1573.5,1962.9,1576.1,1975.6L1576.1,1975.6z"/>
		<path class="st36" d="M1530.2,1861.4c2.3,11.5-5.1,22.7-16.6,25l-368.9,74.6c-11.5,2.3-22.7-5.1-25.1-16.6l0,0
			c-2.3-11.5,5.1-22.7,16.6-25.1l368.9-74.5C1516.6,1842.6,1527.8,1850,1530.2,1861.4L1530.2,1861.4z"/>
		<path class="st36" d="M1436.2,1849.1c-12.7-65.7-76.3-108.6-142-95.9c-65.7,12.7-108.6,76.3-95.9,142c0.1,0.6,0.3,1.3,0.4,1.9
			l7.1,35l237.5-47.9L1436.2,1849.1z M1319,1880.8c-25.5,5.2-50.3-11.3-55.5-36.8c-5.2-25.5,11.3-50.3,36.8-55.5
			c25.5-5.2,50.3,11.3,55.5,36.8c0,0,0,0,0,0C1360.9,1850.8,1344.5,1875.6,1319,1880.8z"/>
		<path class="st33" d="M2477.9,2981.2c0,0,16.9,19,63.3,31.6l-14,254.1c0,0-42.1-8.2-82.8,10L2477.9,2981.2z"/>
		<path class="st0" d="M2634.5,2978.1l-98.2-4.8c-13.6-0.7-25.2,9.8-25.8,23.4l-6.3,129.1l-6.3,129.1c-0.7,13.6,9.8,25.1,23.4,25.8
			l98.2,4.8c13.6,0.7,25.1-9.8,25.8-23.4l6.3-129.1l6.3-129.1C2658.6,2990.4,2648.1,2978.8,2634.5,2978.1
			C2634.5,2978.1,2634.5,2978.1,2634.5,2978.1z"/>
		<path class="st33" d="M2154,3233.3c1-21,18.4-37,39.1-37.4c0-0.2-0.1-0.4-0.1-0.5l-37-1.8c-22-1.1-38.9-19.7-37.8-41.7
			c1.1-22,19.7-38.9,41.7-37.8l0,0l-39.8-1.9c-21.9-1.1-38.9-19.7-37.8-41.7c1.1-21.9,19.7-38.9,41.7-37.8L1965,3025
			c-22-0.8-39.1-19.3-38.3-41.2c0.8-22,19.3-39.1,41.2-38.3c0.3,0,0.6,0,1,0l25.4,1.2l213.1,10.4l28.7,1.4c4.8,0.2,9.4-4,11-8.6
			c1.6-4.8,0.1-10-3.8-13.2c-36.7-31.1-74.5-31.1-72.4-73.2c0.7-15.2,13.6-27,28.8-26.3c4.7,0.2,9.3,1.6,13.3,4.1l261.9,137.5
			c6.1,3.8,9.7,10.7,9.4,17.9c-1.7,34.8-7.7,157.4-11.3,232.1c-1.6,32.9-29.6,58.3-62.5,56.7c0,0,0,0,0,0l-218.6-10.7
			C2169.9,3273.9,2153,3255.3,2154,3233.3z"/>
		<path class="st22" d="M3477.3,3349.1c-2.4,0-4.8,0-7.2-0.1l-925.8-38.6l14.4-344.5l703.8,55.5l-151.5-358.7l295.9-112.7
			l223.7,547.7c43.7,84.6,10.5,188.6-74.1,232.3C3531.9,3342.5,3504.8,3349.1,3477.3,3349.1L3477.3,3349.1z"/>
	</g>
</g>
</svg>
