<svg xmlns="http://www.w3.org/2000/svg" viewBox="0 0 307.4 357.79"><defs><style>.cls-1{fill:#43bda7;}.cls-1,.cls-2{fill-rule:evenodd;}.cls-2{fill:#fff;}</style></defs><g id="Layer_2" data-name="Layer 2"><g id="_9" data-name="9"><path class="cls-1" d="M304,52.69,155.4.28a5.28,5.28,0,0,0-3.38,0L3.38,52.69A5.11,5.11,0,0,0,0,57.47C0,110.53,14.05,171.85,38.52,225.7c19.84,43.69,55.54,102,112.86,131.51a5.12,5.12,0,0,0,2.33.58,5,5,0,0,0,2.32-.58c57.33-29.51,93-87.82,112.88-131.51,24.47-53.85,38.49-115.17,38.49-168.23A5.07,5.07,0,0,0,304,52.69Z"/><path class="cls-2" d="M286.54,68.43,153.71,21.61,20.86,68.43C22.7,118.59,36.8,172,57.34,217.15c20.66,45.53,52.24,92.07,96.37,117.78,44.11-25.71,75.69-72.25,96.38-117.78C270.6,172,284.73,118.59,286.54,68.43Z"/><path class="cls-2" d="M145.81,229.91a26.15,26.15,0,0,0-24-25.86V192.83l-5.49,2.74v8.7a26,26,0,0,0-22.88,25.64v24a2.8,2.8,0,0,0,2.74,2.76h9.15a2.76,2.76,0,1,0,0-5.52H98.89V229.91a20.71,20.71,0,0,1,41.42,0v21.28h-5.72a2.76,2.76,0,1,0,0,5.52h8.46a2.67,2.67,0,0,0,2.76-2.76Z"/><path class="cls-2" d="M189.07,194.2v21.31a10,10,0,0,0-8,9.82,10.21,10.21,0,0,0,10.07,10.3,10.07,10.07,0,0,0,10.1-10.3,9.81,9.81,0,0,0-6.89-9.37.8.8,0,0,0,.25-.7V196.71Zm-2.76,31.13a4.65,4.65,0,0,1,4.8-4.57,4.69,4.69,0,1,1,0,9.37,4.68,4.68,0,0,1-4.8-4.8Z"/><path class="cls-1" d="M70,216.73C88.27,256.09,115.77,296,153.91,318.2,192,296.05,219.41,256.29,237.63,217c-9.42-8.28-23.79-11.37-43.06-20.32v18.55a.8.8,0,0,1-.25.7,9.81,9.81,0,0,1,6.89,9.37,10.07,10.07,0,0,1-10.1,10.3A10.21,10.21,0,0,1,181,225.33a10,10,0,0,1,8-9.82V194.2c-3-1.59-6.19-3.21-9.4-5V176.57h0c7.79-5,10.54-16,13.06-25.86,1.14-.22,2.06-2.06,2.06-4.35v-.67a14.92,14.92,0,0,0,2.51-6c.92-3,4.35-12.11,1.14-14.42a2.07,2.07,0,0,0-3.2,1.17s4.13-22.68.92-32.3c-7.09-24.94-65.69-31.8-65.69-16.24-24.94,7.09-20.37,30.66-16.94,48.76,0,0-1.61-2.29-3.9,0-2.74,3,.25,9.82,1.14,13a25.34,25.34,0,0,0,2.29,5.72v.92c0,2.29.92,4.35,2.29,4.35h0c3,11,4.82,21.76,13.05,27.48v11a63.09,63.09,0,0,1-6.64,3.65v11.22a26.15,26.15,0,0,1,24,25.86v24a2.67,2.67,0,0,1-2.76,2.76h-8.46a2.76,2.76,0,1,1,0-5.52h5.72V229.91a20.71,20.71,0,0,0-41.42,0v21.28h6.39a2.76,2.76,0,1,1,0,5.52H96.13A2.8,2.8,0,0,1,93.39,254v-24a26,26,0,0,1,22.88-25.64v-8.7c-21,9.94-36.4,12.26-46.23,21.16Zm121.07,13.4a4.69,4.69,0,1,1,0-9.37,4.69,4.69,0,1,1,0,9.37Z"/></g></g></svg>